<svg id="eit4nvezin3h1" xmlns="http://www.w3.org/2000/svg" xmlns:xlink="http://www.w3.org/1999/xlink" viewBox="0 0 500 300" shape-rendering="geometricPrecision" text-rendering="geometricPrecision"><style><![CDATA[#eit4nvezin3h9_to {animation: eit4nvezin3h9_to__to 2100ms linear infinite normal forwards}@keyframes eit4nvezin3h9_to__to { 0% {transform: translate(269.330536px,65.297436px)} 28.571429% {transform: translate(269.330536px,55.297436px)} 52.380952% {transform: translate(269.330536px,65.297436px)} 76.190476% {transform: translate(269.330536px,55.297436px)} 100% {transform: translate(269.330536px,65.297436px)} }#eit4nvezin3h17_to {animation: eit4nvezin3h17_to__to 2100ms linear infinite normal forwards}@keyframes eit4nvezin3h17_to__to { 0% {transform: translate(253.959225px,91.902518px)} 28.571429% {transform: translate(253.959225px,81.902518px)} 52.380952% {transform: translate(253.959225px,91.902518px)} 76.190476% {transform: translate(253.959225px,81.902518px)} 100% {transform: translate(253.959225px,91.902518px)} }#eit4nvezin3h30 {animation: eit4nvezin3h30_c_o 2100ms linear infinite normal forwards}@keyframes eit4nvezin3h30_c_o { 0% {opacity: 0} 28.571429% {opacity: 0;animation-timing-function: cubic-bezier(0.120000,0.575000,0.495000,0.730000)} 38.095238% {opacity: 1;animation-timing-function: cubic-bezier(0.120000,0.575000,0.495000,0.730000)} 61.904762% {opacity: 1;animation-timing-function: cubic-bezier(0.120000,0.575000,0.495000,0.730000)} 71.428571% {opacity: 0} 100% {opacity: 0} }#eit4nvezin3h35 {animation: eit4nvezin3h35_c_o 2100ms linear infinite normal forwards}@keyframes eit4nvezin3h35_c_o { 0% {opacity: 0} 23.809524% {opacity: 0;animation-timing-function: cubic-bezier(0.120000,0.575000,0.495000,0.730000)} 33.333333% {opacity: 1;animation-timing-function: cubic-bezier(0.120000,0.575000,0.495000,0.730000)} 57.142857% {opacity: 1;animation-timing-function: cubic-bezier(0.120000,0.575000,0.495000,0.730000)} 66.666667% {opacity: 0} 100% {opacity: 0} }#eit4nvezin3h37 {animation: eit4nvezin3h37_c_o 2100ms linear infinite normal forwards}@keyframes eit4nvezin3h37_c_o { 0% {opacity: 0} 19.047619% {opacity: 0;animation-timing-function: cubic-bezier(0.120000,0.575000,0.495000,0.730000)} 28.571429% {opacity: 1;animation-timing-function: cubic-bezier(0.120000,0.575000,0.495000,0.730000)} 52.380952% {opacity: 1;animation-timing-function: cubic-bezier(0.120000,0.575000,0.495000,0.730000)} 61.904762% {opacity: 0} 100% {opacity: 0} }#eit4nvezin3h39 {animation: eit4nvezin3h39_c_o 2100ms linear infinite normal forwards}@keyframes eit4nvezin3h39_c_o { 0% {opacity: 0} 14.285714% {opacity: 0;animation-timing-function: cubic-bezier(0.120000,0.575000,0.495000,0.730000)} 23.809524% {opacity: 1;animation-timing-function: cubic-bezier(0.120000,0.575000,0.495000,0.730000)} 47.619048% {opacity: 1;animation-timing-function: cubic-bezier(0.120000,0.575000,0.495000,0.730000)} 57.142857% {opacity: 0} 100% {opacity: 0} }#eit4nvezin3h42 {animation: eit4nvezin3h42_s_do 2100ms linear infinite normal forwards}@keyframes eit4nvezin3h42_s_do { 0% {stroke-dashoffset: 563.160000} 47.619048% {stroke-dashoffset: 0;animation-timing-function: cubic-bezier(0.175000,0.450000,0.760000,0.995000)} 100% {stroke-dashoffset: -563.160000} }]]></style><defs><linearGradient id="eit4nvezin3h4-fill" x1="243.284100" y1="236.002300" x2="270.128900" y2="47.478300" spreadMethod="pad" gradientUnits="userSpaceOnUse"><stop id="eit4nvezin3h4-fill-0" offset="0%" stop-color="rgb(32,50,69)"/><stop id="eit4nvezin3h4-fill-1" offset="100%" stop-color="rgb(46,72,99)"/></linearGradient><linearGradient id="eit4nvezin3h23-fill" x1="126.971400" y1="77.940800" x2="319.602700" y2="243.913200" spreadMethod="pad" gradientUnits="userSpaceOnUse"><stop id="eit4nvezin3h23-fill-0" offset="0%" stop-color="rgb(53,83,115)"/><stop id="eit4nvezin3h23-fill-1" offset="49.930000%" stop-color="rgb(46,72,99)"/><stop id="eit4nvezin3h23-fill-2" offset="100%" stop-color="rgb(41,63,87)"/></linearGradient><linearGradient id="eit4nvezin3h42-stroke" x1="49.225700" y1="210.859300" x2="440.170200" y2="210.859300" spreadMethod="pad" gradientUnits="userSpaceOnUse"><stop id="eit4nvezin3h42-stroke-0" offset="0%" stop-color="rgb(82,123,245)"/><stop id="eit4nvezin3h42-stroke-1" offset="99.940000%" stop-color="rgb(82,143,245)"/></linearGradient></defs><g id="eit4nvezin3h2"><g id="eit4nvezin3h3"><path id="eit4nvezin3h4" d="M365.700000,110.300000L154.500000,110.300000C150.300000,110.300000,146.800000,113.700000,146.800000,118L146.800000,250.700000C146.800000,254.900000,150.200000,258.400000,154.500000,258.400000L346.500000,258.400000C350.700000,258.400000,354.200000,255,354.200000,250.700000L373.400000,118C373.400000,113.700000,370,110.300000,365.700000,110.300000Z" fill="url(#eit4nvezin3h4-fill)" stroke="none" stroke-width="1"/></g><g id="eit4nvezin3h5"><g id="eit4nvezin3h6"><path id="eit4nvezin3h7" d="M341.400000,101.800000L218.600000,101.800000C218.300000,86,205.500000,73.200000,189.600000,73.200000L140.200000,73.200000C135.800000,73.200000,132.200000,76.800000,132.200000,81.200000L132.200000,102.200000C132.200000,106.600000,135.800000,110.200000,140.200000,110.200000L141.200000,110.200000L141.200000,244.300000C141.200000,248.400000,144.500000,251.800000,148.700000,251.800000L341.400000,251.800000C345.500000,251.800000,348.900000,248.500000,348.900000,244.300000L348.900000,109.300000C348.900000,105.100000,345.500000,101.800000,341.400000,101.800000Z" fill="rgb(40,62,86)" stroke="none" stroke-width="1"/></g></g><g id="eit4nvezin3h8" transform="matrix(1 0 0 1 -10 0)"><g id="eit4nvezin3h9_to" transform="translate(269.330536,65.297436)"><g id="eit4nvezin3h9" transform="rotate(-9.512573) translate(-369.330536,-106.297436)"><g id="eit4nvezin3h10"><g id="eit4nvezin3h11"><path id="eit4nvezin3h12" d="M436.500000,81.100000L333.900000,46.400000C331.700000,45.600000,329.300000,46.800000,328.500000,49.100000L299.500000,134.800000C298.700000,137,299.900000,139.400000,302.200000,140.200000L404.800000,175C407,175.800000,409.400000,174.600000,410.200000,172.300000L439.200000,86.600000C439.900000,84.300000,438.800000,81.900000,436.500000,81.100000Z" fill="rgb(62,90,115)" stroke="none" stroke-width="1"/><g id="eit4nvezin3h13"><path id="eit4nvezin3h14" d="M411.900000,104.100000L340.900000,80.600000C338.800000,79.900000,337.600000,77.600000,338.300000,75.400000L338.300000,75.400000C339,73.300000,341.300000,72.100000,343.500000,72.800000L414.500000,96.300000C416.600000,97,417.800000,99.300000,417.100000,101.500000L417.100000,101.500000C416.400000,103.700000,414.100000,104.800000,411.900000,104.100000Z" opacity="0.7" fill="rgb(255,255,255)" stroke="none" stroke-width="1"/><path id="eit4nvezin3h15" d="M404.500000,126.600000L333.500000,103.100000C331.400000,102.400000,330.200000,100.100000,330.900000,97.900000L330.900000,97.900000C331.600000,95.800000,333.900000,94.600000,336.100000,95.300000L407.100000,118.800000C409.200000,119.500000,410.400000,121.800000,409.700000,124L409.700000,124C408.900000,126.100000,406.600000,127.300000,404.500000,126.600000Z" opacity="0.7" fill="rgb(255,255,255)" stroke="none" stroke-width="1"/><path id="eit4nvezin3h16" d="M383.200000,144.500000L339.900000,130.100000C338.200000,129.500000,337.300000,127.700000,337.800000,126L338.300000,124.400000C338.900000,122.700000,340.700000,121.800000,342.400000,122.300000L385.700000,136.700000C387.400000,137.300000,388.300000,139.100000,387.800000,140.800000L387.300000,142.400000C386.700000,144.100000,384.900000,145.100000,383.200000,144.500000Z" opacity="0.3" fill="rgb(255,255,255)" stroke="none" stroke-width="1"/></g></g></g></g></g><g id="eit4nvezin3h17_to" transform="translate(253.959225,91.902518)"><g id="eit4nvezin3h17" transform="translate(-253.959225,-79.902518)"><path id="eit4nvezin3h18" d="M379,41.700000L273.200000,64.800000C270.900000,65.300000,269.500000,67.600000,270,69.800000L289.300000,158.200000C289.800000,160.500000,292.100000,161.900000,294.300000,161.400000L400.100000,138.300000C402.400000,137.800000,403.800000,135.500000,403.300000,133.300000L384.100000,45C383.600000,42.700000,381.300000,41.200000,379,41.700000Z" transform="matrix(0.20982270224541 -0.97773945078555 0.97773945078555 0.20982270224541 84.03059864561453 384.83502358810915)" fill="rgb(255,255,255)" stroke="none" stroke-width="1"/><path id="eit4nvezin3h19" d="M373.500000,94.400000L300.600000,110.800000C298.400000,111.300000,296.200000,109.900000,295.700000,107.700000L295.700000,107.700000C295.200000,105.500000,296.600000,103.300000,298.800000,102.800000L371.700000,86.400000C373.900000,85.900000,376.100000,87.300000,376.600000,89.500000L376.600000,89.500000C377.100000,91.700000,375.700000,93.900000,373.500000,94.400000Z" transform="matrix(0.97611821414795 0.21724003316290 -0.21724003316290 0.97611821414795 -52.48886035034525 -107.66902067775855)" fill="rgb(150,182,209)" stroke="none" stroke-width="1"/><path id="eit4nvezin3h20" d="M370.200000,74L296.700000,90.500000C294.500000,91,292.300000,89.600000,291.800000,87.400000L291.800000,87.400000C291.300000,85.200000,292.700000,83,294.900000,82.500000L368.400000,66C370.600000,65.500000,372.800000,66.900000,373.300000,69.100000L373.300000,69.100000C373.700000,71.300000,372.400000,73.500000,370.200000,74Z" transform="matrix(0.97611821414795 0.21724003316290 -0.21724003316290 0.97611821414795 -53.38132197543558 -105.53019215767995)" fill="rgb(150,182,209)" stroke="none" stroke-width="1"/><path id="eit4nvezin3h21" d="M363.600000,120.900000L320.700000,130.500000C318.500000,131,316.300000,129.600000,315.800000,127.400000L315.800000,127.400000C315.300000,125.200000,316.700000,123,318.900000,122.500000L361.800000,112.900000C364,112.400000,366.200000,113.800000,366.700000,116L366.700000,116C367.200000,118.200000,365.800000,120.400000,363.600000,120.900000Z" transform="matrix(0.97611821414795 0.21724003316290 -0.21724003316290 0.97611821414795 -52.44881847206341 -115.22674797864420)" fill="rgb(150,182,209)" stroke="none" stroke-width="1"/></g></g></g><g id="eit4nvezin3h22"><path id="eit4nvezin3h23" d="M346.300000,97.900000L140.200000,97.900000C135.800000,97.900000,132.200000,101.500000,132.200000,105.900000L132.200000,250.400000C132.200000,254.800000,135.800000,258.400000,140.200000,258.400000L346.400000,258.400000C350.800000,258.400000,354.400000,254.800000,354.400000,250.400000L354.400000,105.900000C354.300000,101.500000,350.800000,97.900000,346.300000,97.900000Z" fill="url(#eit4nvezin3h23-fill)" stroke="none" stroke-width="1"/></g><g id="eit4nvezin3h24"><polygon id="eit4nvezin3h25" points="270.100000,176.800000 275.800000,176.800000 275.800000,176.800000 282,159.600000 276.300000,159.600000 272.900000,169 269.500000,159.600000 263.900000,159.600000 270.100000,176.800000" clip-rule="evenodd" fill="rgb(37,45,57)" fill-rule="evenodd" stroke="none" stroke-width="1"/><polygon id="eit4nvezin3h26" points="275.800000,179.500000 270.100000,179.500000 270.100000,179.500000 263.900000,196.700000 269.500000,196.700000 272.900000,187.300000 276.300000,196.700000 282,196.700000 275.800000,179.500000" clip-rule="evenodd" fill="rgb(37,45,57)" fill-rule="evenodd" stroke="none" stroke-width="1"/><polygon id="eit4nvezin3h27" points="253.800000,159.600000 250.400000,159.600000 248.300000,159.600000 243,196.700000 248.600000,196.700000 252.100000,171.600000 255.700000,196.700000 261.200000,196.700000 256,159.600000" clip-rule="evenodd" fill="rgb(37,45,57)" fill-rule="evenodd" stroke="none" stroke-width="1"/><path id="eit4nvezin3h28" d="M233.900000,159.600000L227.300000,159.600000L227.300000,159.600000L222.200000,159.600000L222.200000,196.600000L227.400000,196.600000L227.400000,182.100000L231.900000,182.100000L235.100000,196.600000L240.400000,196.600000L237.300000,182C239.300000,181.100000,240.400000,179.400000,240.400000,176.100000L240.400000,166.800000C240.400000,162.600000,237.900000,159.600000,233.900000,159.600000ZM235.200000,174.100000C235.200000,175.900000,234.500000,176.800000,233,176.800000L227.400000,176.800000L227.400000,165L233,165C234.500000,165,235.200000,165.900000,235.200000,167.700000L235.200000,174.100000Z" clip-rule="evenodd" fill="rgb(37,45,57)" fill-rule="evenodd" stroke="none" stroke-width="1"/><path id="eit4nvezin3h29" d="M212.300000,159.600000L208.500000,159.600000C203.700000,159.600000,201.300000,161.700000,201.300000,166L201.300000,171.500000L201.300000,171.500000L201.300000,174.300000C201.300000,175.300000,201.600000,175.800000,201.700000,176.100000C201.800000,176.200000,201.800000,176.400000,201.900000,176.500000C201.900000,176.500000,201.900000,176.600000,202,176.600000C202,176.700000,202.100000,176.700000,202.100000,176.800000C202.200000,176.900000,202.300000,177,202.400000,177.100000C202.400000,177.100000,202.400000,177.200000,202.500000,177.200000C202.600000,177.300000,202.600000,177.300000,202.700000,177.400000C202.800000,177.500000,202.900000,177.600000,203,177.700000C203.200000,177.800000,203.400000,178,203.700000,178.100000C204.200000,178.400000,205.600000,179,207.300000,179.800000L211.500000,181.700000C211.800000,181.800000,212,182,212.200000,182.100000C212.800000,182.400000,213.400000,182.700000,214,182.900000C214,182.900000,214,182.900000,214,182.900000C214.300000,183.100000,214.500000,183.300000,214.500000,184L214.500000,189.200000C214.500000,190.700000,213.700000,191.400000,212.100000,191.400000L209.300000,191.400000C207.500000,191.400000,206.600000,190.700000,206.600000,189.200000L206.600000,187.200000L201.500000,187.200000L201.500000,189.500000C201.500000,194.100000,203,196.800000,207.800000,196.800000L212.400000,196.800000C217.200000,196.800000,219.700000,194.700000,219.700000,190.500000L219.700000,185.700000L219.700000,182.900000C219.700000,181.800000,219.600000,181,219.400000,180.500000C219.200000,180,218.700000,179.500000,218.600000,179.400000C218,178.800000,216.700000,178.200000,215,177.400000L209.700000,175C209.600000,175,209.600000,174.900000,209.500000,174.900000C209.600000,174.900000,209.600000,175,209.700000,175L215,177.400000C213.300000,176.600000,211.300000,175.700000,209.300000,174.800000C209.300000,174.800000,209.300000,174.800000,209.300000,174.800000C208.500000,174.500000,207.800000,174.200000,207.100000,173.900000C207.100000,173.900000,207.100000,173.900000,207.100000,173.900000C206.800000,173.700000,206.700000,173.400000,206.700000,172.700000L206.700000,167.300000C206.700000,165.800000,207.600000,165.100000,209.300000,165.100000L211.900000,165.100000C213.700000,165.100000,214.500000,165.800000,214.500000,167.300000L214.500000,170.600000L219.700000,170.600000L219.700000,166C219.600000,161.800000,217.100000,159.600000,212.300000,159.600000Z" clip-rule="evenodd" fill="rgb(37,45,57)" fill-rule="evenodd" stroke="none" stroke-width="1"/></g><g id="eit4nvezin3h30" opacity="0"><g id="eit4nvezin3h31"><polygon id="eit4nvezin3h32" points="270.100000,176.800000 275.800000,176.800000 275.800000,176.800000 282,159.600000 276.300000,159.600000 272.900000,169 269.500000,159.600000 263.900000,159.600000 270.100000,176.800000" clip-rule="evenodd" fill="rgb(255,255,255)" fill-rule="evenodd" stroke="none" stroke-width="1"/></g><g id="eit4nvezin3h33"><polygon id="eit4nvezin3h34" points="275.800000,179.500000 270.100000,179.500000 270.100000,179.500000 263.900000,196.700000 269.500000,196.700000 272.900000,187.300000 276.300000,196.700000 282,196.700000 275.800000,179.500000" clip-rule="evenodd" fill="rgb(255,255,255)" fill-rule="evenodd" stroke="none" stroke-width="1"/></g></g><g id="eit4nvezin3h35" opacity="0"><polygon id="eit4nvezin3h36" points="253.800000,159.600000 250.400000,159.600000 248.300000,159.600000 243,196.700000 248.600000,196.700000 252.100000,171.600000 255.700000,196.700000 261.200000,196.700000 256,159.600000" clip-rule="evenodd" fill="rgb(255,255,255)" fill-rule="evenodd" stroke="none" stroke-width="1"/></g><g id="eit4nvezin3h37" opacity="0"><path id="eit4nvezin3h38" d="M233.900000,159.600000L227.300000,159.600000L227.300000,159.600000L222.200000,159.600000L222.200000,196.600000L227.400000,196.600000L227.400000,182.100000L231.900000,182.100000L235.100000,196.600000L240.400000,196.600000L237.300000,182C239.300000,181.100000,240.400000,179.400000,240.400000,176.100000L240.400000,166.800000C240.400000,162.600000,237.900000,159.600000,233.900000,159.600000ZM235.200000,174.100000C235.200000,175.900000,234.500000,176.800000,233,176.800000L227.400000,176.800000L227.400000,165L233,165C234.500000,165,235.200000,165.900000,235.200000,167.700000L235.200000,174.100000Z" clip-rule="evenodd" fill="rgb(255,255,255)" fill-rule="evenodd" stroke="none" stroke-width="1"/></g><g id="eit4nvezin3h39" opacity="0"><path id="eit4nvezin3h40" d="M212.300000,159.600000L208.500000,159.600000C203.700000,159.600000,201.300000,161.700000,201.300000,166L201.300000,171.500000L201.300000,171.500000L201.300000,174.300000C201.300000,175.300000,201.600000,175.800000,201.700000,176.100000C201.800000,176.200000,201.800000,176.400000,201.900000,176.500000C201.900000,176.500000,201.900000,176.600000,202,176.600000C202,176.700000,202.100000,176.700000,202.100000,176.800000C202.200000,176.900000,202.300000,177,202.400000,177.100000C202.400000,177.100000,202.400000,177.200000,202.500000,177.200000C202.600000,177.300000,202.600000,177.300000,202.700000,177.400000C202.800000,177.500000,202.900000,177.600000,203,177.700000C203.200000,177.800000,203.400000,178,203.700000,178.100000C204.200000,178.400000,205.600000,179,207.300000,179.800000L211.500000,181.700000C211.800000,181.800000,212,182,212.200000,182.100000C212.800000,182.400000,213.400000,182.700000,214,182.900000C214,182.900000,214,182.900000,214,182.900000C214.300000,183.100000,214.500000,183.300000,214.500000,184L214.500000,189.200000C214.500000,190.700000,213.700000,191.400000,212.100000,191.400000L209.300000,191.400000C207.500000,191.400000,206.600000,190.700000,206.600000,189.200000L206.600000,187.200000L201.500000,187.200000L201.500000,189.500000C201.500000,194.100000,203,196.800000,207.800000,196.800000L212.400000,196.800000C217.200000,196.800000,219.700000,194.700000,219.700000,190.500000L219.700000,185.700000L219.700000,182.900000C219.700000,181.800000,219.600000,181,219.400000,180.500000C219.200000,180,218.700000,179.500000,218.600000,179.400000C218,178.800000,216.700000,178.200000,215,177.400000L209.700000,175C209.600000,175,209.600000,174.900000,209.500000,174.900000C209.600000,174.900000,209.600000,175,209.700000,175L215,177.400000C213.300000,176.600000,211.300000,175.700000,209.300000,174.800000C209.300000,174.800000,209.300000,174.800000,209.300000,174.800000C208.500000,174.500000,207.800000,174.200000,207.100000,173.900000C207.100000,173.900000,207.100000,173.900000,207.100000,173.900000C206.800000,173.700000,206.700000,173.400000,206.700000,172.700000L206.700000,167.300000C206.700000,165.800000,207.600000,165.100000,209.300000,165.100000L211.900000,165.100000C213.700000,165.100000,214.500000,165.800000,214.500000,167.300000L214.500000,170.600000L219.700000,170.600000L219.700000,166C219.600000,161.800000,217.100000,159.600000,212.300000,159.600000Z" clip-rule="evenodd" fill="rgb(255,255,255)" fill-rule="evenodd" stroke="none" stroke-width="1"/></g></g><g id="eit4nvezin3h41"><path id="eit4nvezin3h42" d="M131.500000,190.500000C101.500000,190.500000,49.500000,200.500000,49.700000,208.800000C50,221.200000,139.400000,231.200000,250,231.200000C298.600000,231.200000,445.500000,226.500000,439.500000,207.500000C438.500000,204.500000,433.500000,201.500000,420.500000,198.500000C410.600000,196.200000,400.500000,194.500000,364.500000,190.500000" clip-rule="evenodd" fill="none" fill-rule="evenodd" stroke="url(#eit4nvezin3h42-stroke)" stroke-width="0.983300" stroke-miterlimit="10" stroke-dashoffset="563.160000" stroke-dasharray="563.160000"/></g></svg>